<svg width="161" height="36" viewBox="0 0 161 36" fill="none" xmlns="http://www.w3.org/2000/svg">
<ellipse cx="8" cy="28" rx="8" ry="8.00003" fill="#020617"/>
<ellipse cx="28" cy="28" rx="8" ry="8.00003" fill="#F43F5E"/>
<ellipse cx="28" cy="8.00003" rx="8" ry="8.00003" fill="#020617"/>
<path d="M59.3191 0H63.1268V10.908C63.1216 11.93 62.8745 12.8236 62.3856 13.5888C61.8966 14.3489 61.2204 14.9395 60.3568 15.3606C59.4985 15.7817 58.505 15.9923 57.3762 15.9923C56.3774 15.9923 55.4697 15.8203 54.653 15.4762C53.8415 15.1321 53.1939 14.598 52.7101 13.8739C52.2316 13.1497 51.9949 12.2228 52.0001 11.0929H55.8468C55.8625 11.4986 55.9405 11.8453 56.0809 12.1329C56.2266 12.4153 56.4269 12.6285 56.6817 12.7723C56.9366 12.9161 57.2409 12.988 57.5947 12.988C57.964 12.988 58.2761 12.9109 58.531 12.7569C58.7859 12.5977 58.9784 12.364 59.1084 12.0559C59.2437 11.7477 59.3139 11.3651 59.3191 10.908V0Z" fill="#020617"/>
<path d="M70.2672 16C69.0084 16 67.9264 15.7458 67.0213 15.2374C66.1213 14.7238 65.4269 14.0099 64.9379 13.0958C64.4542 12.1765 64.2123 11.1109 64.2123 9.89889C64.2123 8.68175 64.4542 7.61611 64.9379 6.70197C65.4269 5.7827 66.1213 5.06885 67.0213 4.56042C67.9264 4.04686 69.0084 3.79008 70.2672 3.79008C71.5261 3.79008 72.6054 4.04686 73.5054 4.56042C74.4105 5.06885 75.1049 5.7827 75.5887 6.70197C76.0777 7.61611 76.3222 8.68175 76.3222 9.89889C76.3222 11.1109 76.0777 12.1765 75.5887 13.0958C75.1049 14.0099 74.4105 14.7238 73.5054 15.2374C72.6054 15.7458 71.5261 16 70.2672 16ZM70.2906 13.1574C70.7484 13.1574 71.1359 13.0188 71.4532 12.7415C71.7706 12.4641 72.0124 12.079 72.1789 11.5859C72.3506 11.0929 72.4364 10.5229 72.4364 9.87578C72.4364 9.21842 72.3506 8.64324 72.1789 8.15022C72.0124 7.6572 71.7706 7.27203 71.4532 6.9947C71.1359 6.71738 70.7484 6.57872 70.2906 6.57872C69.8173 6.57872 69.4167 6.71738 69.089 6.9947C68.7665 7.27203 68.5194 7.6572 68.3477 8.15022C68.1813 8.64324 68.098 9.21842 68.098 9.87578C68.098 10.5229 68.1813 11.0929 68.3477 11.5859C68.5194 12.079 68.7665 12.4641 69.089 12.7415C69.4167 13.0188 69.8173 13.1574 70.2906 13.1574Z" fill="#020617"/>
<path d="M81.2134 9.02841V15.7766H77.3979V0H81.0886V6.11651H81.2212C81.4917 5.38726 81.9339 4.8172 82.5477 4.40636C83.1667 3.99551 83.9236 3.79008 84.8183 3.79008C85.661 3.79008 86.3944 3.97496 87.0187 4.34473C87.6429 4.70936 88.1267 5.22549 88.47 5.89311C88.8185 6.56074 88.9902 7.34136 88.985 8.23495V15.7766H85.1694V8.97448C85.1746 8.31712 85.0082 7.80356 84.67 7.4338C84.3319 7.06403 83.8559 6.87915 83.2421 6.87915C82.8416 6.87915 82.4879 6.96646 82.1809 7.14107C81.8792 7.31054 81.6426 7.55449 81.4709 7.87289C81.3044 8.1913 81.2186 8.57647 81.2134 9.02841Z" fill="#020617"/>
<path d="M94.3034 9.02841V15.7766H90.4879V3.94415H94.1161V6.11651H94.2488C94.5141 5.39239 94.9666 4.82491 95.6065 4.41406C96.2463 3.99807 97.0084 3.79008 97.8927 3.79008C98.7354 3.79008 99.4662 3.97753 100.085 4.35243C100.709 4.7222 101.193 5.24089 101.537 5.90852C101.885 6.57102 102.057 7.34649 102.052 8.23495V15.7766H98.236V8.97448C98.2412 8.31712 98.0721 7.80356 97.7288 7.4338C97.3907 7.06403 96.9199 6.87915 96.3165 6.87915C95.916 6.87915 95.5623 6.96646 95.2553 7.14107C94.9536 7.31054 94.7196 7.55449 94.5531 7.87289C94.3918 8.1913 94.3086 8.57647 94.3034 9.02841Z" fill="#020617"/>
<path d="M106.914 15.9769C106.149 15.9769 105.47 15.8511 104.877 15.5994C104.289 15.3426 103.824 14.9575 103.48 14.4439C103.142 13.9252 102.973 13.2756 102.973 12.4949C102.973 11.8376 103.09 11.2829 103.324 10.831C103.558 10.3791 103.881 10.0119 104.292 9.72942C104.703 9.44696 105.176 9.23383 105.712 9.09003C106.248 8.9411 106.82 8.84096 107.429 8.7896C108.11 8.72797 108.659 8.66378 109.075 8.59702C109.491 8.52512 109.793 8.42497 109.98 8.29658C110.172 8.16306 110.269 7.97561 110.269 7.73423V7.69571C110.269 7.30027 110.131 6.9947 109.855 6.77901C109.579 6.56331 109.208 6.45546 108.739 6.45546C108.235 6.45546 107.829 6.56331 107.522 6.77901C107.215 6.9947 107.02 7.29257 106.937 7.6726L103.418 7.54935C103.522 6.83036 103.79 6.18841 104.222 5.6235C104.659 5.05344 105.257 4.60664 106.016 4.2831C106.781 3.95442 107.699 3.79008 108.771 3.79008C109.535 3.79008 110.24 3.87996 110.885 4.0597C111.53 4.23431 112.092 4.49109 112.571 4.83004C113.049 5.16386 113.418 5.57471 113.679 6.06259C113.944 6.55047 114.076 7.10769 114.076 7.73423V15.7766H110.487V14.1281H110.394C110.18 14.5286 109.907 14.8676 109.574 15.1449C109.247 15.4222 108.859 15.6302 108.412 15.7689C107.97 15.9076 107.47 15.9769 106.914 15.9769ZM108.092 13.5118C108.503 13.5118 108.872 13.4296 109.2 13.2653C109.533 13.1009 109.798 12.875 109.996 12.5874C110.193 12.2947 110.292 11.9557 110.292 11.5705V10.4458C110.183 10.5023 110.05 10.5537 109.894 10.5999C109.743 10.6461 109.577 10.6898 109.395 10.7309C109.213 10.7719 109.025 10.8079 108.833 10.8387C108.641 10.8695 108.456 10.8978 108.279 10.9234C107.92 10.9799 107.613 11.0672 107.358 11.1854C107.109 11.3035 106.916 11.4576 106.781 11.6476C106.651 11.8325 106.586 12.0533 106.586 12.3101C106.586 12.7004 106.726 12.9982 107.007 13.2037C107.293 13.4091 107.655 13.5118 108.092 13.5118Z" fill="#020617"/>
<path d="M122.296 3.94415V6.71738H114.735V3.94415H122.296ZM116.319 1.10929H120.134V12.0559C120.134 12.287 120.171 12.4744 120.243 12.6182C120.321 12.7569 120.433 12.857 120.579 12.9186C120.725 12.9751 120.899 13.0034 121.102 13.0034C121.247 13.0034 121.401 12.9905 121.562 12.9649C121.729 12.934 121.853 12.9084 121.937 12.8878L122.514 15.6071C122.332 15.6585 122.075 15.7227 121.742 15.7997C121.414 15.8767 121.021 15.9255 120.563 15.9461C119.669 15.9872 118.901 15.8844 118.262 15.6379C117.627 15.3863 117.141 14.996 116.802 14.467C116.47 13.9381 116.308 13.273 116.319 12.4718V1.10929Z" fill="#020617"/>
<path d="M127.437 9.02841V15.7766H123.621V0H127.312V6.11651H127.444C127.715 5.38726 128.157 4.8172 128.771 4.40636C129.39 3.99551 130.147 3.79008 131.041 3.79008C131.884 3.79008 132.618 3.97496 133.242 4.34473C133.866 4.70936 134.35 5.22549 134.693 5.89311C135.042 6.56074 135.213 7.34136 135.208 8.23495V15.7766H131.393V8.97448C131.398 8.31712 131.231 7.80356 130.893 7.4338C130.555 7.06403 130.079 6.87915 129.465 6.87915C129.065 6.87915 128.711 6.96646 128.404 7.14107C128.102 7.31054 127.866 7.55449 127.694 7.87289C127.528 8.1913 127.442 8.57647 127.437 9.02841Z" fill="#020617"/>
<path d="M142.306 16C141.047 16 139.965 15.7458 139.06 15.2374C138.16 14.7238 137.465 14.0099 136.976 13.0958C136.492 12.1765 136.251 11.1109 136.251 9.89889C136.251 8.68175 136.492 7.61611 136.976 6.70197C137.465 5.7827 138.16 5.06885 139.06 4.56042C139.965 4.04686 141.047 3.79008 142.306 3.79008C143.564 3.79008 144.644 4.04686 145.544 4.56042C146.449 5.06885 147.143 5.7827 147.627 6.70197C148.116 7.61611 148.36 8.68175 148.36 9.89889C148.36 11.1109 148.116 12.1765 147.627 13.0958C147.143 14.0099 146.449 14.7238 145.544 15.2374C144.644 15.7458 143.564 16 142.306 16ZM142.329 13.1574C142.787 13.1574 143.174 13.0188 143.492 12.7415C143.809 12.4641 144.051 12.079 144.217 11.5859C144.389 11.0929 144.475 10.5229 144.475 9.87578C144.475 9.21842 144.389 8.64324 144.217 8.15022C144.051 7.6572 143.809 7.27203 143.492 6.9947C143.174 6.71738 142.787 6.57872 142.329 6.57872C141.856 6.57872 141.455 6.71738 141.127 6.9947C140.805 7.27203 140.558 7.6572 140.386 8.15022C140.22 8.64324 140.136 9.21842 140.136 9.87578C140.136 10.5229 140.22 11.0929 140.386 11.5859C140.558 12.079 140.805 12.4641 141.127 12.7415C141.455 13.0188 141.856 13.1574 142.329 13.1574Z" fill="#020617"/>
<path d="M153.252 9.02841V15.7766H149.436V3.94415H153.064V6.11651H153.197C153.462 5.39239 153.915 4.82491 154.555 4.41406C155.195 3.99807 155.957 3.79008 156.841 3.79008C157.684 3.79008 158.415 3.97753 159.034 4.35243C159.658 4.7222 160.142 5.24089 160.485 5.90852C160.833 6.57102 161.005 7.34649 161 8.23495V15.7766H157.184V8.97448C157.19 8.31712 157.02 7.80356 156.677 7.4338C156.339 7.06403 155.868 6.87915 155.265 6.87915C154.864 6.87915 154.511 6.96646 154.204 7.14107C153.902 7.31054 153.668 7.55449 153.501 7.87289C153.34 8.1913 153.257 8.57647 153.252 9.02841Z" fill="#020617"/>
<path d="M52 35.7766V20H58.6211C59.81 20 60.8049 20.1669 61.6061 20.5007C62.4124 20.8345 63.0172 21.3019 63.4203 21.9027C63.8286 22.5036 64.0328 23.1995 64.0328 23.9904C64.0328 24.5912 63.9062 25.1279 63.6529 25.6004C63.3996 26.0677 63.0508 26.4555 62.6062 26.7636C62.1617 27.0717 61.6474 27.2874 61.0634 27.4107V27.5648C61.7043 27.5956 62.2961 27.7676 62.8388 28.0809C63.3867 28.3942 63.8261 28.8307 64.1569 29.3905C64.4877 29.9451 64.6531 30.6025 64.6531 31.3625C64.6531 32.2099 64.436 32.9674 64.0018 33.635C63.5676 34.2975 62.9396 34.8214 62.1178 35.2065C61.296 35.5866 60.2984 35.7766 59.1251 35.7766H52ZM55.8378 32.7029H58.2102C59.0424 32.7029 59.6549 32.5463 60.0477 32.233C60.4457 31.9198 60.6447 31.4832 60.6447 30.9234C60.6447 30.5177 60.5491 30.1685 60.3578 29.8758C60.1666 29.5779 59.8952 29.3494 59.5438 29.1902C59.1923 29.0258 58.771 28.9437 58.28 28.9437H55.8378V32.7029ZM55.8378 26.4863H57.9621C58.3808 26.4863 58.753 26.4169 59.0786 26.2783C59.4042 26.1396 59.6575 25.9393 59.8384 25.6774C60.0245 25.4155 60.1175 25.0997 60.1175 24.7299C60.1175 24.2009 59.9288 23.7849 59.5515 23.4819C59.1742 23.1789 58.6651 23.0274 58.0242 23.0274H55.8378V26.4863Z" fill="#020617"/>
<path d="M71.184 36C69.9331 36 68.858 35.7458 67.9587 35.2374C67.0645 34.7238 66.3745 34.0099 65.8886 33.0958C65.4079 32.1765 65.1676 31.1109 65.1676 29.8989C65.1676 28.6818 65.4079 27.6161 65.8886 26.702C66.3745 25.7827 67.0645 25.0688 67.9587 24.5604C68.858 24.0469 69.9331 23.7901 71.184 23.7901C72.4348 23.7901 73.5073 24.0469 74.4015 24.5604C75.3009 25.0688 75.9909 25.7827 76.4716 26.702C76.9574 27.6161 77.2004 28.6818 77.2004 29.8989C77.2004 31.1109 76.9574 32.1765 76.4716 33.0958C75.9909 34.0099 75.3009 34.7238 74.4015 35.2374C73.5073 35.7458 72.4348 36 71.184 36ZM71.2072 33.1574C71.6621 33.1574 72.0471 33.0188 72.3624 32.7415C72.6777 32.4641 72.9181 32.079 73.0835 31.5859C73.254 31.0929 73.3393 30.5229 73.3393 29.8758C73.3393 29.2184 73.254 28.6432 73.0835 28.1502C72.9181 27.6572 72.6777 27.272 72.3624 26.9947C72.0471 26.7174 71.6621 26.5787 71.2072 26.5787C70.7369 26.5787 70.3389 26.7174 70.0132 26.9947C69.6928 27.272 69.4473 27.6572 69.2767 28.1502C69.1113 28.6432 69.0286 29.2184 69.0286 29.8758C69.0286 30.5229 69.1113 31.0929 69.2767 31.5859C69.4473 32.079 69.6928 32.4641 70.0132 32.7415C70.3389 33.0188 70.7369 33.1574 71.2072 33.1574Z" fill="#020617"/>
<path d="M80.2385 35.7766L77.1373 23.9442H80.944L82.5489 31.5243H82.6497L84.3709 23.9442H88.0846L89.8523 31.4704H89.9531L91.5115 23.9442H95.3183L92.2093 35.7766H88.1544L86.2937 28.882H86.1619L84.3011 35.7766H80.2385Z" fill="#020617"/>
<path d="M101.277 36C100.032 36 98.9566 35.7561 98.0521 35.2682C97.1527 34.7752 96.4601 34.0741 95.9743 33.1651C95.4936 32.251 95.2532 31.1648 95.2532 29.9066C95.2532 28.6843 95.4962 27.6161 95.982 26.702C96.4679 25.7827 97.1527 25.0688 98.0366 24.5604C98.9204 24.0469 99.9619 23.7901 101.161 23.7901C102.009 23.7901 102.784 23.921 103.487 24.183C104.19 24.4449 104.797 24.8326 105.309 25.3462C105.821 25.8597 106.219 26.494 106.503 27.2489C106.787 27.9987 106.929 28.8589 106.929 29.8296V30.7694H96.579V28.5816H103.402C103.397 28.181 103.301 27.8241 103.115 27.5108C102.929 27.1976 102.673 26.9536 102.347 26.779C102.027 26.5993 101.657 26.5094 101.239 26.5094C100.815 26.5094 100.435 26.6044 100.099 26.7944C99.7629 26.9793 99.4968 27.2335 99.3003 27.5571C99.1039 27.8755 99.0006 28.2375 98.9902 28.6432V30.8695C98.9902 31.3523 99.0858 31.776 99.2771 32.1406C99.4683 32.5001 99.7397 32.78 100.091 32.9803C100.443 33.1805 100.861 33.2807 101.347 33.2807C101.683 33.2807 101.988 33.2345 102.262 33.142C102.536 33.0496 102.771 32.9135 102.968 32.7338C103.164 32.554 103.311 32.3332 103.409 32.0713L106.891 32.1714C106.746 32.9469 106.428 33.6222 105.937 34.1974C105.451 34.7675 104.813 35.2117 104.022 35.5301C103.231 35.8434 102.316 36 101.277 36Z" fill="#020617"/>
<path d="M107.992 35.7766V23.9442H111.675V26.1011H111.799C112.016 25.3205 112.37 24.7402 112.861 24.3601C113.352 23.975 113.924 23.7824 114.575 23.7824C114.751 23.7824 114.931 23.7952 115.118 23.8209C115.304 23.8414 115.477 23.8748 115.637 23.921V27.195C115.456 27.1334 115.218 27.0846 114.924 27.0486C114.634 27.0127 114.376 26.9947 114.148 26.9947C113.699 26.9947 113.293 27.0948 112.931 27.2951C112.575 27.4903 112.293 27.765 112.086 28.1194C111.884 28.4686 111.784 28.8795 111.784 29.3519V35.7766H107.992Z" fill="#020617"/>
<path d="M126.705 27.5571L123.224 27.6495C123.188 27.403 123.09 27.1847 122.93 26.9947C122.769 26.7996 122.56 26.6481 122.302 26.5402C122.048 26.4272 121.754 26.3707 121.418 26.3707C120.978 26.3707 120.604 26.458 120.294 26.6326C119.989 26.8073 119.839 27.0435 119.844 27.3414C119.839 27.5725 119.932 27.7727 120.123 27.9422C120.319 28.1117 120.668 28.2478 121.17 28.3505L123.465 28.7819C124.653 29.0079 125.537 29.3828 126.116 29.9066C126.7 30.4304 126.995 31.1237 127 31.9865C126.995 32.7979 126.752 33.5041 126.271 34.105C125.796 34.7058 125.144 35.1732 124.317 35.507C123.49 35.8357 122.545 36 121.48 36C119.779 36 118.438 35.6533 117.456 34.96C116.479 34.2616 115.921 33.3269 115.781 32.156L119.526 32.0636C119.609 32.4949 119.823 32.8236 120.17 33.0496C120.516 33.2756 120.958 33.3885 121.495 33.3885C121.981 33.3885 122.377 33.2987 122.682 33.1189C122.986 32.9392 123.142 32.7004 123.147 32.4025C123.142 32.1355 123.023 31.9223 122.79 31.7631C122.557 31.5988 122.193 31.4704 121.697 31.3779L119.619 30.9851C118.425 30.7694 117.536 30.3714 116.952 29.791C116.368 29.2056 116.078 28.4609 116.084 27.5571C116.078 26.7662 116.29 26.0908 116.719 25.5311C117.148 24.9661 117.758 24.5347 118.549 24.2369C119.34 23.939 120.273 23.7901 121.348 23.7901C122.961 23.7901 124.232 24.1265 125.163 24.7992C126.093 25.4669 126.607 26.3861 126.705 27.5571Z" fill="#020617"/>
</svg>
